<?xml version="1.0" ?><!DOCTYPE svg  PUBLIC '-//W3C//DTD SVG 1.1//EN'  'http://www.w3.org/Graphics/SVG/1.1/DTD/svg11.dtd'><svg enable-background="new 0 0 128 128" id="Layer_1" version="1.1" viewBox="0 0 128 128" xml:space="preserve" xmlns="http://www.w3.org/2000/svg" xmlns:xlink="http://www.w3.org/1999/xlink"><g><path clip-rule="evenodd" d="M62,60.9c-0.2,0-0.4-0.1-0.6-0.1c-0.5-0.1-1.1-0.3-1.9-0.5   c-0.8-0.3-1.3-0.6-1.6-1c-0.3-0.4-0.4-1-0.4-1.6c0-1.4,0.6-2.5,1.9-3.4c0.7-0.5,1.6-0.9,2.5-1.1V60.9z M66,66.2   c1.3,0.3,2.4,0.7,3.1,1.1c1.2,0.6,1.7,1.7,1.7,3.2c0,1.4-0.6,2.5-1.9,3.4c-0.8,0.5-1.8,0.9-2.9,1.1V66.2z M81.1,46.9   c-4.4-4.4-10.4-7.1-17.1-7.1c-6.7,0-12.8,2.7-17.1,7.1c-4.4,4.4-7.1,10.4-7.1,17.1c0,6.7,2.7,12.8,7.1,17.1   c4.4,4.4,10.4,7.1,17.1,7.1c6.7,0,12.8-2.7,17.1-7.1c4.4-4.4,7.1-10.4,7.1-17.1C88.2,57.3,85.5,51.2,81.1,46.9z M64,35.7   c7.8,0,14.9,3.2,20,8.3c5.1,5.1,8.3,12.2,8.3,20c0,7.8-3.2,14.9-8.3,20c-5.1,5.1-12.2,8.3-20,8.3c-7.8,0-14.9-3.2-20-8.3   c-5.1-5.1-8.3-12.2-8.3-20c0-7.8,3.2-14.9,8.3-20C49.1,38.9,56.2,35.7,64,35.7z M86.2,41.8c-5.7-5.7-13.5-9.2-22.2-9.2   c-8.7,0-16.5,3.5-22.2,9.2c-5.7,5.7-9.2,13.5-9.2,22.2c0,8.7,3.5,16.5,9.2,22.2c5.7,5.7,13.5,9.2,22.2,9.2c8.7,0,16.5-3.5,22.2-9.2   c5.7-5.7,9.2-13.5,9.2-22.2C95.4,55.3,91.9,47.5,86.2,41.8z M64,28.5c9.8,0,18.7,4,25.1,10.4c6.4,6.4,10.4,15.3,10.4,25.1   c0,9.8-4,18.7-10.4,25.1C82.7,95.5,73.8,99.5,64,99.5c-9.8,0-18.7-4-25.1-10.4C32.5,82.7,28.5,73.8,28.5,64c0-9.8,4-18.7,10.4-25.1   C45.3,32.5,54.2,28.5,64,28.5z M62,48.4c-2.2,0.3-4.2,1.2-6,2.5c-2.4,1.8-3.6,4.1-3.6,6.8c0,1.2,0.2,2.2,0.7,3.1   c0.5,0.9,1,1.6,1.7,2.1c0.6,0.5,1.5,1,2.6,1.4c1.1,0.4,2.1,0.7,2.9,0.8c0.5,0.1,1,0.2,1.7,0.3v9.3c-1.2-0.2-2.5-0.5-3.9-0.9   c-2.2-0.7-3.4-1-3.8-1c-1.6,0-2.3,0.9-2.3,2.8c0,1,1.3,2,3.8,2.8c2,0.6,4.1,1,6.2,1.2v3.1c0,1.1,0.9,2,2,2c1.1,0,2-0.9,2-2v-3.1   c2.6-0.3,4.9-1.1,6.6-2.4c2.3-1.7,3.4-4,3.4-7c0-2.8-1-4.9-3-6.2c-1.8-1.2-4.1-2-7.1-2.5v-8.6c1.2,0.1,2.4,0.4,3.5,0.7   c1.7,0.6,2.8,0.8,3.2,0.8c1.5,0,2.3-0.8,2.3-2.5c0-0.8-0.6-1.5-1.8-2.1c-1.9-0.9-4.3-1.4-7.1-1.6v-3.1c0-1.1-0.9-2-2-2   c-1.1,0-2,0.9-2,2V48.4z" fill="#2B2D03" fill-rule="evenodd"/><path clip-rule="evenodd" d="M46.9,46.9c-4.4,4.4-7.1,10.4-7.1,17.1c0,6.7,2.7,12.8,7.1,17.1   c4.4,4.4,10.4,7.1,17.1,7.1c6.7,0,12.8-2.7,17.1-7.1c4.4-4.4,7.1-10.4,7.1-17.1c0-6.7-2.7-12.8-7.1-17.1   c-4.4-4.4-10.4-7.1-17.1-7.1C57.3,39.8,51.2,42.5,46.9,46.9z M66,52.9v8.6c3,0.5,5.3,1.3,7.1,2.5c2,1.3,3,3.4,3,6.2   c0,3-1.1,5.3-3.4,7c-1.8,1.3-4,2.1-6.6,2.4v3.1c0,1.1-0.9,2-2,2c-1.1,0-2-0.9-2-2v-3.1c-2.1-0.1-4.2-0.5-6.2-1.2   c-2.5-0.8-3.8-1.8-3.8-2.8c0-1.9,0.8-2.8,2.3-2.8c0.4,0,1.6,0.3,3.8,1c1.4,0.4,2.6,0.7,3.9,0.9v-9.3c-0.6-0.1-1.2-0.2-1.7-0.3   c-0.8-0.2-1.8-0.4-2.9-0.8c-1.1-0.4-2-0.9-2.6-1.4c-0.6-0.5-1.2-1.2-1.7-2.1c-0.5-0.9-0.7-1.9-0.7-3.1c0-2.7,1.2-5,3.6-6.8   c1.8-1.3,3.8-2.2,6-2.5v-3.2c0-1.1,0.9-2,2-2c1.1,0,2,0.9,2,2v3.1c2.8,0.1,5.2,0.7,7.1,1.6c1.2,0.6,1.8,1.3,1.8,2.1   c0,1.7-0.8,2.5-2.3,2.5c-0.4,0-1.4-0.3-3.2-0.8C68.4,53.3,67.2,53.1,66,52.9z" fill="#FFE64C" fill-rule="evenodd"/><path clip-rule="evenodd" d="M62,60.9v-7.8c-0.9,0.2-1.8,0.6-2.5,1.1c-1.3,0.9-1.9,2-1.9,3.4   c0,0.7,0.1,1.2,0.4,1.6c0.3,0.4,0.8,0.8,1.6,1c0.8,0.3,1.4,0.4,1.9,0.5L62,60.9z" fill="#FFE64C" fill-rule="evenodd"/><path clip-rule="evenodd" d="M69.1,67.3c-0.7-0.4-1.8-0.8-3.1-1.1v8.6c1.1-0.2,2.1-0.5,2.9-1.1   c1.3-0.8,1.9-1.9,1.9-3.4C70.9,68.9,70.3,67.9,69.1,67.3z" fill="#FFE64C" fill-rule="evenodd"/><path clip-rule="evenodd" d="M64,32.6c-8.7,0-16.5,3.5-22.2,9.2c-5.7,5.7-9.2,13.5-9.2,22.2   c0,8.7,3.5,16.5,9.2,22.2c5.7,5.7,13.5,9.2,22.2,9.2c8.7,0,16.5-3.5,22.2-9.2c5.7-5.7,9.2-13.5,9.2-22.2c0-8.7-3.5-16.5-9.2-22.2   C80.5,36.1,72.7,32.6,64,32.6z M84,44c5.1,5.1,8.3,12.2,8.3,20c0,7.8-3.2,14.9-8.3,20c-5.1,5.1-12.2,8.3-20,8.3   c-7.8,0-14.9-3.2-20-8.3c-5.1-5.1-8.3-12.2-8.3-20c0-7.8,3.2-14.9,8.3-20c5.1-5.1,12.2-8.3,20-8.3C71.8,35.7,78.9,38.9,84,44z" fill="#FFE64C" fill-rule="evenodd"/></g></svg>